<svg width="40" height="41" viewBox="0 0 40 41" fill="none" xmlns="http://www.w3.org/2000/svg">
<path d="M30.0279 18.1927C28.8996 19.3279 28.3357 20.9069 28.4897 22.5001L28.4632 22.4736C28.6215 24.3484 27.9452 26.1977 26.6148 27.5281C25.2844 28.8585 23.4351 29.5348 21.5603 29.3765L21.5868 29.403C19.3168 29.1917 17.158 30.4265 16.1893 32.4902C15.2205 34.554 15.6498 37.0036 17.2626 38.6149C18.8754 40.2262 21.3254 40.6533 23.3883 39.6827C25.4511 38.7121 26.6839 36.5522 26.4706 34.2824L26.4985 34.3089C26.3403 32.4341 27.0165 30.5848 28.347 29.2544C29.6774 27.924 31.5266 27.2477 33.4015 27.4059L33.3735 27.3795C35.8683 27.6038 38.1897 26.0827 38.9799 23.7057C39.7701 21.3287 38.8215 18.7205 36.689 17.4065C34.5564 16.0925 31.8001 16.4181 30.0323 18.1927H30.0279Z" fill="#FAFAFA" fill-opacity="0.917647"/>
<path d="M19.1794 25.9353L19.1515 25.9088C20.7456 26.0695 22.3277 25.5057 23.4611 24.3732C24.5945 23.2407 25.1594 21.659 25 20.0647L25.0279 20.0912C24.8697 18.2164 25.5459 16.3671 26.8764 15.0367C28.2068 13.7063 30.056 13.03 31.9309 13.1883L31.9029 13.1618C34.1731 13.375 36.3332 12.1416 37.3034 10.0781C38.2736 8.01466 37.8456 5.56436 36.2333 3.95204C34.6209 2.33971 32.1706 1.91168 30.1072 2.8819C28.0437 3.85212 26.8103 6.01219 27.0235 8.28237L26.997 8.25443C27.1558 10.1294 26.4797 11.979 25.1492 13.3095C23.8186 14.6401 21.9691 15.3162 20.0941 15.1574L20.1206 15.1853C18.5264 15.0247 16.9443 15.5884 15.8109 16.721C14.6775 17.8535 14.1126 19.4351 14.272 21.0294L14.2456 21.003C14.4033 22.8777 13.7269 24.7266 12.3966 26.0569C11.0663 27.3872 9.21733 28.0636 7.34263 27.9059L7.3691 27.9324C5.09892 27.7192 2.93885 28.9526 1.96863 31.016C0.998411 33.0795 1.42644 35.5298 3.03877 37.1421C4.6511 38.7544 7.10139 39.1825 9.16485 38.2123C11.2283 37.242 12.4617 35.082 12.2485 32.8118L12.2765 32.8383C12.1182 30.9634 12.7945 29.1142 14.1249 27.7837C15.4553 26.4533 17.3046 25.7771 19.1794 25.9353V25.9353Z" fill="white"/>
<path d="M9.32353 22.9839C10.452 21.8488 11.0155 20.2696 10.8603 18.6765L10.8882 18.703C10.7298 16.8276 11.4065 14.9778 12.7376 13.6473C14.0687 12.3167 15.9188 11.6409 17.7941 11.8001L17.7662 11.7736C20.0356 11.9862 22.1946 10.7529 23.1642 8.6901C24.1339 6.62729 23.7058 4.17796 22.0941 2.56623C20.4824 0.954501 18.0331 0.526496 15.9703 1.49612C13.9074 2.46575 12.6742 4.62478 12.8868 6.89417L12.8603 6.8677C13.0186 8.74254 12.3423 10.5918 11.0119 11.9222C9.68144 13.2526 7.83218 13.9289 5.95735 13.7706L5.98382 13.7971C3.48912 13.5734 1.16818 15.095 0.378454 17.4719C-0.411274 19.8489 0.537647 22.4569 2.67022 23.7705C4.8028 25.0842 7.55886 24.7585 9.32647 22.9839H9.32353Z" fill="#FAFAFA" fill-opacity="0.917647"/>
</svg>
